{"title":"The Three Musketeers 1993 DVDrip English Klam","uid":6456704,"size":1682591934,"categoryP":"video","categoryS":"movies","magnet":"?xt=urn:btih:1225382a05c14f13cc83b65e0af148407ae7c0fe&amp;dn=The+Three+Musketeers+1993+DVDrip+English+Klam&amp;tr=udp%3A%2F%2Ftracker.openbittorrent.com%3A80&amp;tr=udp%3A%2F%2Fopen.demonii.com%3A1337&amp;tr=udp%3A%2F%2Ftracker.coppersurfer.tk%3A6969&amp;tr=udp%3A%2F%2Fexodus.desync.com%3A6969","seeders":1,"leechers":2,"uploader":"Klambake","files":-1,"time":1307610700,"description":"With: Charlie Sheen, Kiefer Sutherland and Chris O'Donnell\n\nDe jonge D'Artagnan komt naar Parijs om Musketier te worden. Hij komt er al gauw achter dat Kardinaal Richelieu, de adviseur van de koning, de Musketiers vogelvrij heeft verklaard. Nadat D'Artagnan zijn waarde heeft bewezen in het hanteren van het zwaard in afzonderlijke duels met de Musketiers Aramis, Athos en Porthos wordt hij door hen uitgenodigd het geheime document, met de opdracht de koning af te zetten, te onderscheppen. Onderweg wordt D'Artagnan van zijn vrienden gescheiden en vervolgens ontvoerd door Milady de Winter, die een spion blijkt te zijn in dienst van Richelieu. Haar opdracht is het geheime document af te leveren. In de spannende finale moeten de Musketiers tot het uiterste gaan om de koning te redden.\n\nThe three best of the disbanded Musketeers - Athos, Porthos, and Aramis - join a young hotheaded would-be-Musketeer, D'Artagnan, to stop the Cardinal Richelieu's evil plot: to form an alliance with enemy England by way of the mysterious Milady. Rochefort, the Cardinal's right-hand man, announces the official disbanding of the King's Musketeers. Three, however, refuse to throw down their swords - Athos the fighter and drinker, Porthos the pirate and lover, and Aramis the priest and poet. Arriving in Paris to join the Musketeers, D'Artagnan uncovers the Cardinal's plans, and the four set out on a mission to protect King and Country.\n\nGeneral:\n\nComplete name                    : The Three Musketeers\\The Three Musketeers.avi\nFormat                           : AVI\nFormat/Info                      : Audio Video Interleave\nFile size                        : 1.57 GiB\nDuration                         : 1h 41mn\nOverall bit rate                 : 2 213 Kbps\n\nVideo:\n\nFormat                           : MPEG-4 Visual\nFormat profile                   : Simple@L3\nFormat settings, BVOP            : No\nFormat settings, QPel            : No\nFormat settings, GMC             : No warppoints\nFormat settings, Matrix          : Default (H.263)\nCodec ID                         : XVID\nCodec ID/Hint                    : XviD\nDuration                         : 1h 41mn\nBit rate                         : 1 818 Kbps\nWidth                            : 720 pixels\nHeight                           : 304 pixels\nDisplay aspect ratio             : 2.35:1\nFrame rate                       : 25.000 fps\nColor space                      : YUV\nChroma subsampling               : 4:2:0\nBit depth                        : 8 bits\nScan type                        : Progressive\nBits/(Pixel*Frame)               : 0.332\nStream size                      : 1.29 GiB (82%)\nWriting library                  : XviD 1.1.2 (UTC 2006-11-01)\n\nAudio:\n\nFormat                           : AC-3\nFormat/Info                      : Audio Coding 3\nMode extension                   : CM (complete main)\nCodec ID                         : 2000\nDuration                         : 1h 41mn\nBit rate mode                    : Constant\nBit rate                         : 384 Kbps\nChannel(s)                       : 6 channels\nChannel positions                : Front: L C R, Side: L R, LFE\nSampling rate                    : 48.0 KHz\nBit depth                        : 16 bits\nStream size                      : 278 MiB (17%)\nAlignment                        : Aligned on interleaves\nInterleave, duration             : 32 ms (0.80 video frame)\nInterleave, preload duration     : 640 ms\n\n\n\n\n","torrent":{"xt":"urn:btih:1225382a05c14f13cc83b65e0af148407ae7c0fe","amp;dn":"The+Three+Musketeers+1993+DVDrip+English+Klam","amp;tr":["udp%3A%2F%2Ftracker.openbittorrent.com%3A80","udp%3A%2F%2Fopen.demonii.com%3A1337","udp%3A%2F%2Ftracker.coppersurfer.tk%3A6969","udp%3A%2F%2Fexodus.desync.com%3A6969"],"infoHash":"1225382a05c14f13cc83b65e0af148407ae7c0fe","infoHashBuffer":{"type":"Buffer","data":[18,37,56,42,5,193,79,19,204,131,182,94,10,241,72,64,122,231,192,254]},"announce":[],"urlList":[]}}